<svg xmlns="http://www.w3.org/2000/svg" viewBox="0 0 2048 1024">
  <defs>
    <linearGradient id="ocean" x1="0%" y1="0%" x2="100%" y2="100%">
      <stop offset="0%" stop-color="#0b274a" />
      <stop offset="50%" stop-color="#17456d" />
      <stop offset="100%" stop-color="#08192f" />
    </linearGradient>
    <filter id="blur" x="-10%" y="-10%" width="120%" height="120%">
      <feGaussianBlur stdDeviation="12" />
    </filter>
  </defs>
  <rect width="2048" height="1024" fill="url(#ocean)" />
  <g fill="#284b35" opacity="0.96">
    <path d="M232 206c57-18 133-14 182 25 38 31 61 76 109 98 53 25 116 21 164 56 41 29 62 80 53 130-12 66-75 113-140 121-85 10-151-37-232-49-78-12-171-4-228-59-53-51-57-137-28-204 20-48 66-93 120-118z"/>
    <path d="M848 164c90-42 216-28 289 40 49 44 72 110 121 148 37 30 89 40 119 79 35 45 37 110 7 160-38 63-115 98-188 93-60-4-113-31-171-45-68-16-142-16-198-60-57-45-88-127-67-197 17-57 54-104 88-149z"/>
    <path d="M1310 432c53-63 148-105 233-95 76 9 139 58 184 120 34 48 60 111 45 170-19 75-97 132-173 150-104 24-199-21-298-38-68-12-145-17-190-69-43-49-45-124-23-185 27-74 96-106 154-153z"/>
    <path d="M1642 189c37-28 95-30 139-16 34 11 69 34 80 68 15 44-10 95-48 123-55 41-131 50-196 60-49 8-105 12-145-18-29-22-35-62-24-96 13-39 44-72 82-92 35-18 74-10 112-29z"/>
    <path d="M564 628c54-41 135-53 201-34 62 18 118 65 138 126 21 65 5 143-41 194-52 59-136 85-213 74-78-11-158-52-195-121-41-77-20-182 45-239 20-18 42-33 65-46z"/>
    <path d="M1194 744c62-33 142-34 206-6 72 31 122 104 115 182-7 75-67 142-139 169-96 36-214 8-275-73-57-75-54-190 10-257 23-24 51-34 83-15z"/>
  </g>
  <g fill="#5fb174" opacity="0.24" filter="url(#blur)">
    <path d="M290 234c84 0 173 51 216 122 34 57 48 128 25 191-41 110-172 178-287 149-111-28-197-133-196-247 1-67 31-129 73-181 48-28 106-34 169-34z"/>
    <path d="M922 178c78-25 164-11 229 36 74 54 120 144 104 236-16 90-87 169-174 195-97 28-210 0-277-76-59-66-75-165-42-247 29-72 87-121 160-144z"/>
    <path d="M1368 470c72-32 159-22 226 18 80 47 135 136 128 230-7 89-72 172-154 208-102 44-233 20-313-64-76-81-91-211-36-309 28-50 82-60 149-83z"/>
  </g>
</svg>
