<svg xmlns="http://www.w3.org/2000/svg" viewBox="0 0 1600 900">
  <rect width="1600" height="900" fill="#020814" />
  <g fill="#fff">
    <circle cx="42" cy="71" r="1.1" opacity=".85" />
    <circle cx="120" cy="188" r=".8" opacity=".65" />
    <circle cx="211" cy="404" r="1.4" opacity=".82" />
    <circle cx="356" cy="94" r="1.2" opacity=".9" />
    <circle cx="483" cy="227" r=".8" opacity=".72" />
    <circle cx="615" cy="311" r="1.6" opacity=".88" />
    <circle cx="770" cy="132" r="1.1" opacity=".78" />
    <circle cx="923" cy="279" r=".9" opacity=".7" />
    <circle cx="1044" cy="118" r="1.5" opacity=".92" />
    <circle cx="1173" cy="355" r="1.2" opacity=".84" />
    <circle cx="1336" cy="201" r=".8" opacity=".64" />
    <circle cx="1489" cy="98" r="1.3" opacity=".87" />
    <circle cx="158" cy="634" r="1.1" opacity=".73" />
    <circle cx="294" cy="782" r="1.4" opacity=".9" />
    <circle cx="444" cy="581" r=".9" opacity=".7" />
    <circle cx="578" cy="706" r="1.3" opacity=".8" />
    <circle cx="719" cy="854" r=".8" opacity=".6" />
    <circle cx="859" cy="649" r="1.6" opacity=".9" />
    <circle cx="991" cy="770" r="1.2" opacity=".83" />
    <circle cx="1133" cy="600" r="1.1" opacity=".76" />
    <circle cx="1266" cy="839" r=".9" opacity=".65" />
    <circle cx="1409" cy="692" r="1.4" opacity=".9" />
    <circle cx="1530" cy="566" r="1.1" opacity=".78" />
    <circle cx="83" cy="314" r=".7" opacity=".56" />
    <circle cx="672" cy="63" r=".6" opacity=".5" />
    <circle cx="1116" cy="53" r=".7" opacity=".57" />
    <circle cx="1448" cy="436" r=".9" opacity=".62" />
    <circle cx="537" cy="452" r=".7" opacity=".58" />
    <circle cx="875" cy="485" r=".6" opacity=".49" />
  </g>
</svg>
